# xmcd CD database file
#
# Track frame offsets:
#	150
#	11330
#	27782
#	41426
#	55390
#	72493
#	89713
#	106942
#	127951
#	144442
#	158908
#	175758
#	188317
#
# Disc length: 2690 seconds
#
# Revision: 0
# Processed by: cddbd v1.4PL0 Copyright (c) Steve Scherf et al.
# Submitted via: CDex 1.50
#
DISCID=a20a800d
DTITLE=Timothy Paul - Timothy Paul
DYEAR=2002
DGENRE=Country
TTITLE0=When You Call My Name
TTITLE1=Paradise
TTITLE2=American Proud
TTITLE3=Hopeless Longing of the Day
TTITLE4=Who Can I Run To
TTITLE5=It's Midnight
TTITLE6=Santa Fe
TTITLE7=What I'd Leave Behind
TTITLE8=Why Don't You Love Me Anymore
TTITLE9=Sittin' High (Feelin' Down)
TTITLE10=Our Love Comes Naturally
TTITLE11=Learning How To Let Go
TTITLE12=The Oath
EXTD=YEAR: 2002
EXTT0=
EXTT1=
EXTT2=
EXTT3=
EXTT4=
EXTT5=
EXTT6=
EXTT7=
EXTT8=
EXTT9=
EXTT10=
EXTT11=
EXTT12=
PLAYORDER=
